<?xml version="1.0" standalone="no"?><!DOCTYPE svg PUBLIC "-//W3C//DTD SVG 1.1//EN" "http://www.w3.org/Graphics/SVG/1.1/DTD/svg11.dtd"><svg t="1582912010554" class="icon" viewBox="0 0 1024 1024" version="1.1" xmlns="http://www.w3.org/2000/svg" p-id="2352" xmlns:xlink="http://www.w3.org/1999/xlink" width="200" height="200"><defs><style type="text/css"></style></defs><path d="M864 1024H160C72 1024 0 952 0 864V160C0 72 72 0 160 0h704c88 0 160 72 160 160v704c0 88-72 160-160 160z" fill="#07B906" p-id="2353"></path><path d="M512 512m-412.8 0a412.8 412.8 0 1 0 825.6 0 412.8 412.8 0 1 0-825.6 0Z" fill="#FFFFFF" p-id="2354"></path><path d="M512 0C228.8 0 0 230.4 0 512s228.8 512 512 512c281.6 0 512-228.8 512-512-1.6-281.6-230.4-512-512-512z m-94.4 648c-24 0-49.6-4.8-72-9.6-1.6 0-4.8-1.6-4.8-1.6l-56 32c-14.4 8-24 1.6-20.8-14.4 0 0 14.4-59.2 12.8-59.2-52.8-35.2-78.4-80-78.4-140.8 4.8-104 94.4-185.6 217.6-185.6 112 0 204.8 68.8 220.8 161.6h-9.6c-112 0-204.8 78.4-204.8 174.4 0 16 1.6 30.4 6.4 44.8h-11.2v-1.6z m329.6 80l16 32c8 14.4 1.6 20.8-12.8 12.8 0 0-41.6-24-43.2-22.4-19.2 6.4-59.2 12.8-80 12.8-104 0-190.4-72-190.4-160s86.4-160 190.4-160 190.4 72 190.4 160c0 49.6-25.6 92.8-70.4 124.8z" fill="#07B906" p-id="2355"></path><path d="M305.6 388.8c0 9.6 4.8 19.2 14.4 25.6 9.6 4.8 19.2 4.8 28.8 0 9.6-4.8 14.4-14.4 14.4-25.6 0-9.6-4.8-19.2-14.4-25.6-9.6-4.8-19.2-4.8-28.8 0-9.6 4.8-14.4 14.4-14.4 25.6z m363.2 152c0 12.8 11.2 24 24 24s24-11.2 24-24-11.2-24-24-24-24 11.2-24 24z m-134.4 0c0 12.8 11.2 24 24 24s24-11.2 24-24-11.2-24-24-24-24 11.2-24 24z m-57.6-152c0 16 12.8 28.8 28.8 28.8s28.8-12.8 28.8-28.8c0-9.6-4.8-19.2-14.4-25.6-9.6-4.8-19.2-4.8-28.8 0-8 4.8-14.4 14.4-14.4 25.6z" fill="#07B906" p-id="2356"></path></svg>